<svg width="32" height="32" viewBox="0 0 32 32" fill="none" xmlns="http://www.w3.org/2000/svg">
<path fill-rule="evenodd" clip-rule="evenodd" d="M5 6C5 4.89543 5.89543 4 7 4H20.4361C21.4416 4 22.4103 4.37874 23.1492 5.06079L25.7131 7.4275C26.5334 8.18472 27 9.25032 27 10.3667V26C27 27.1046 26.1046 28 25 28H7C5.89543 28 5 27.1046 5 26V6ZM11 16C11 15.4477 11.4477 15 12 15H15C15.5523 15 16 15.4477 16 16C16 16.5523 15.5523 17 15 17H12C11.4477 17 11 16.5523 11 16ZM12 20C11.4477 20 11 20.4477 11 21C11 21.5523 11.4477 22 12 22H20C20.5523 22 21 21.5523 21 21C21 20.4477 20.5523 20 20 20H12Z" fill="black"/>
</svg>
