<svg width="32" height="32" viewBox="0 0 32 32" fill="none" xmlns="http://www.w3.org/2000/svg">
<path fill-rule="evenodd" clip-rule="evenodd" d="M7 4C5.89543 4 5 4.89543 5 6V26C5 27.1046 5.89543 28 7 28H25C26.1046 28 27 27.1046 27 26V6C27 4.89543 26.1046 4 25 4H7ZM12.7071 14.7071C13.0976 14.3166 13.0976 13.6834 12.7071 13.2929C12.3166 12.9024 11.6834 12.9024 11.2929 13.2929L8.29289 16.2929C7.90237 16.6834 7.90237 17.3166 8.29289 17.7071L11.2929 20.7071C11.6834 21.0976 12.3166 21.0976 12.7071 20.7071C13.0976 20.3166 13.0976 19.6834 12.7071 19.2929L10.4142 17L12.7071 14.7071ZM19.2929 13.2929C18.9024 13.6834 18.9024 14.3166 19.2929 14.7071L21.5858 17L19.2929 19.2929C18.9024 19.6834 18.9024 20.3166 19.2929 20.7071C19.6834 21.0976 20.3166 21.0976 20.7071 20.7071L23.7071 17.7071C24.0976 17.3166 24.0976 16.6834 23.7071 16.2929L20.7071 13.2929C20.3166 12.9024 19.6834 12.9024 19.2929 13.2929ZM17.9487 14.3162C18.1233 13.7923 17.8402 13.226 17.3162 13.0513C16.7923 12.8767 16.226 13.1598 16.0513 13.6838L14.0513 19.6838C13.8767 20.2077 14.1598 20.774 14.6838 20.9487C15.2077 21.1233 15.774 20.8402 15.9487 20.3162L17.9487 14.3162Z" fill="black"/>
</svg>
